<svg width="86" height="102" viewBox="0 0 86 102" fill="none" xmlns="http://www.w3.org/2000/svg">
<path fill-rule="evenodd" clip-rule="evenodd" d="M12.0951 75.5868H74.273V48.1426H12.0951V75.5868ZM12.0951 96.1699H74.273V82.4477H12.0951V96.1699ZM35.7623 60.1493C35.7623 58.2625 36.8755 56.7187 38.2362 56.7187H48.1319C49.4925 56.7187 50.6058 58.2625 50.6058 60.1493V63.5799C50.6058 65.4667 49.4925 67.0104 48.1319 67.0104H38.2362C36.8755 67.0104 35.7623 65.4667 35.7623 63.5799V60.1493Z" fill="#E8AB4C"/>
<path fill-rule="evenodd" clip-rule="evenodd" d="M38.2362 67.0112H48.1319C49.4926 67.0112 50.6058 65.4675 50.6058 63.5807V60.1502C50.6058 58.2635 49.4926 56.7197 48.1319 56.7197H38.2362C36.8756 56.7197 35.7623 58.2635 35.7623 60.1502V63.5807C35.7623 65.4675 36.8756 67.0112 38.2362 67.0112Z" fill="#E1763A"/>
<path fill-rule="evenodd" clip-rule="evenodd" d="M12.0951 75.5869H74.273V82.4478H12.0951V75.5869Z" fill="#E1763A"/>
<path fill-rule="evenodd" clip-rule="evenodd" d="M74.273 99.6006H84.1687V41.2817H74.273V99.6006ZM2.19946 99.6006H12.0951V41.2817H2.19946V99.6006Z" fill="#E8AB4C"/>
<path fill-rule="evenodd" clip-rule="evenodd" d="M49.2772 48.1428H74.2728V41.2817H76.9567C79.3436 28.0699 70.6015 16.7223 61.1926 24.3294C55.053 19.3654 49.5043 22.3559 46.7952 28.3933C48.9307 31.8652 49.5493 36.8945 48.074 41.2817C49.4226 43.7915 49.7241 46.0353 49.2772 48.1428Z" fill="#F05475"/>
<path fill-rule="evenodd" clip-rule="evenodd" d="M49.2773 48.1426H74.273V41.2815H76.9568C77.2751 39.5194 77.3939 37.7911 77.3409 36.1357H70.5621V42.9968H48.851C49.5227 44.8312 49.62 46.5268 49.2773 48.1426Z" fill="#E21743"/>
<path fill-rule="evenodd" clip-rule="evenodd" d="M36.8369 48.1431H49.2773C49.7243 46.0356 49.4228 43.7918 48.0742 41.282C49.5494 36.895 48.9308 31.8656 46.7953 28.3937C46.0175 27.1289 45.0383 26.0707 43.886 25.3256C40.9557 23.4308 37.6286 24.0277 35.1646 26.4783C35.8677 28.2121 36.2694 30.2086 36.2694 32.3292C40.3014 35.6925 39.311 41.4622 36.8369 48.1431ZM7.14724 41.282H12.0951V48.1431H18.3845C15.9104 41.4622 14.92 35.6925 18.952 32.3292C18.952 30.2086 19.3537 28.2121 20.0573 26.479C17.5928 24.028 14.2655 23.431 11.3354 25.3258C7.01926 28.1167 5.13463 35.2971 7.14724 41.282Z" fill="#B6EFBB"/>
<path fill-rule="evenodd" clip-rule="evenodd" d="M36.837 48.1433H49.2773C49.6199 46.5275 49.5227 44.832 48.851 42.9975H38.4379C38.0563 44.6284 37.5 46.353 36.837 48.1433ZM6.34128 36.1367H15.806V42.9978H16.7835C17.1653 44.6284 17.7216 46.3533 18.3847 48.1436H12.0951V41.2825H7.14729C6.58818 39.6194 6.33023 37.8643 6.34128 36.1367Z" fill="#71E4BF"/>
<path fill-rule="evenodd" clip-rule="evenodd" d="M36.837 48.1431C39.3111 41.4622 40.3015 35.6925 36.2695 32.3292C36.2695 30.2086 35.8677 28.2121 35.1646 26.4783C33.678 22.8126 30.844 20.3223 27.6108 20.3223C24.3775 20.3223 21.5436 22.8126 20.0569 26.4783C19.3538 28.2121 18.952 30.2086 18.952 32.3292C14.9201 35.6925 15.9105 41.4622 18.3845 48.1431H36.837Z" fill="#B6EFBB"/>
<path fill-rule="evenodd" clip-rule="evenodd" d="M36.837 48.1428C37.5 46.3526 38.0563 44.6277 38.4381 42.9971H16.7834C17.1653 44.6277 17.7216 46.3526 18.3846 48.1428H36.837Z" fill="#71E4BF"/>
<path fill-rule="evenodd" clip-rule="evenodd" d="M61.1927 15.7502C65.2747 15.7502 68.6151 11.1222 68.6151 5.4618V2.03125C64.5328 2.03125 61.1927 6.66158 61.1927 12.3229V15.7502Z" fill="#B6EFBB"/>
<path fill-rule="evenodd" clip-rule="evenodd" d="M74.273 99.6006H77.9839V41.2817H74.273V99.6006ZM2.19946 99.6006H5.91034V41.2817H2.19946V99.6006Z" fill="#E1763A"/>
<path fill-rule="evenodd" clip-rule="evenodd" d="M12.0951 96.1699H15.806V82.4477H12.0951V96.1699ZM12.0951 75.5868H15.806V48.1426H12.0951V75.5868Z" fill="#E1763A"/>
<path d="M70.5621 56.7197H68.0881V53.2891H70.5621V56.7197ZM65.6142 56.7197H63.1403V53.2891H65.6142V56.7197Z" fill="white"/>
<path d="M78.4536 39.567C79.093 33.1242 77.3728 26.8676 73.85 23.1982C70.6024 19.8157 66.447 19.2625 62.4299 21.5664V17.3439C66.6209 16.5093 69.8523 11.4989 69.8523 5.46224V0.316406H68.6153C63.8405 0.316406 59.956 5.70261 59.956 12.3234V21.5584C57.3978 20.0648 54.8186 19.7201 52.4021 20.5748C50.153 21.3702 48.1509 23.1841 46.6382 25.7579C45.9702 24.9693 45.2239 24.2985 44.409 23.7716C41.5703 21.936 38.278 22.1025 35.5428 24.1364C33.7369 20.7833 30.8541 18.6075 27.6109 18.6075C24.3678 18.6075 21.485 20.7833 19.6791 24.1364C16.944 22.1025 13.6519 21.9362 10.813 23.7716C10.3859 24.0479 9.96776 24.371 9.57045 24.7324L10.9271 27.601C11.2255 27.3298 11.5387 27.0873 11.8585 26.8808C13.9684 25.5166 16.4145 25.6303 18.4579 27.1219C18.0631 28.4516 17.8127 29.8839 17.7387 31.3831C15.8526 33.2493 14.9291 35.8206 14.9923 39.0392C15.0334 41.1318 15.4937 43.5218 16.4211 46.4284H13.3321V39.5675H7.98071C7.13924 36.1717 7.64227 32.3388 9.34615 29.5432L7.45673 27.3286C5.37319 30.7468 4.64025 35.3339 5.40387 39.5673H0.962524V101.316H13.3321V97.8858H60.6665V94.4553H13.3321V84.1636H73.0361V94.4553H68.0882V97.8858H73.0361V101.316H85.4057V39.567H78.4536ZM62.4297 12.3231C62.4297 8.18131 64.5581 4.71575 67.3782 3.91918V5.46224C67.3782 9.6027 65.2498 13.0669 62.4297 13.8632V12.3231ZM53.0133 23.8985C55.3756 23.0633 57.9884 23.7249 60.5697 25.8119L61.1928 26.3157L61.8158 25.8119C65.5454 22.7966 69.39 22.8435 72.3642 25.9411C75.2459 28.9426 76.5997 34.1852 75.9508 39.5668H73.0361V46.4277H50.7033C50.7188 44.6587 50.3106 42.8693 49.4782 41.0792C50.3207 38.0109 50.3385 34.6533 49.516 31.5192C49.2152 30.3729 48.8123 29.306 48.3236 28.3326C49.5281 26.1096 51.1673 24.5515 53.0133 23.8985ZM43.3634 26.8804C45.1514 28.0365 46.5107 30.1007 47.191 32.6929C47.8714 35.285 47.7869 38.0777 46.953 40.5573L46.6408 41.4859L47.0823 42.3074C48.0198 44.0517 48.2527 45.4042 48.2347 46.4282H38.8008C39.7282 43.5218 40.1885 41.1318 40.2296 39.039C40.2926 35.8204 39.3693 33.2491 37.4832 31.3829C37.4091 29.8837 37.1588 28.4511 36.7639 27.1216C38.8074 25.63 41.2535 25.5164 43.3634 26.8804ZM19.5897 33.7991L20.189 33.2992V32.3292C20.189 26.6544 23.5184 22.0376 27.6108 22.0376C31.7031 22.0376 35.0325 26.6544 35.0325 32.3292V33.2992L35.6319 33.7991C38.7169 36.3725 38.1005 40.7112 36.0739 46.4279H28.8477V30.614H26.3738V46.4279H19.1477C17.1212 40.7115 16.5047 36.3725 19.5897 33.7991ZM73.0361 49.8585V73.8722H13.3321V49.8585H73.0361ZM10.8582 97.8858H3.43644V42.9976H10.8582V97.8858ZM13.3321 80.733V77.3027H73.0361V80.733H13.3321ZM82.9317 97.8858H75.51V42.9976H82.9317V97.8858Z" fill="black"/>
<path d="M63.1404 94.4551H65.6143V97.8857H63.1404V94.4551Z" fill="black"/>
<path d="M38.2363 68.7266H48.132C50.1782 68.7266 51.8428 66.4183 51.8428 63.5807V60.1502C51.8428 57.3127 50.1782 55.0044 48.132 55.0044H38.2363C36.19 55.0044 34.5254 57.3127 34.5254 60.1502V63.5807C34.5254 66.418 36.19 68.7266 38.2363 68.7266ZM36.9993 60.1502C36.9993 59.2045 37.5543 58.4349 38.2363 58.4349H48.132C48.8139 58.4349 49.3689 59.2045 49.3689 60.1502V63.5807C49.3689 64.5264 48.8139 65.296 48.132 65.296H38.2363C37.5543 65.296 36.9993 64.5264 36.9993 63.5807V60.1502Z" fill="black"/>
</svg>
