<svg width="86" height="102" viewBox="0 0 86 102" fill="none" xmlns="http://www.w3.org/2000/svg">
<path fill-rule="evenodd" clip-rule="evenodd" d="M2.17163 82.083H13.2461V93.9189H57.5441V69.8527C57.5441 68.2251 58.79 66.8938 60.3127 66.8938V57.8211C50.1537 56.3746 42.3167 47.0774 42.3167 35.8242C42.3167 23.5677 51.6133 13.6318 63.0814 13.6318V1.7959H2.17163V82.083ZM21.5526 25.4676C16.9843 25.4676 13.2459 21.4731 13.2459 16.5908V13.6318C17.8145 13.6318 21.5526 17.6267 21.5526 22.5088V25.4676ZM21.5526 29.8408V26.8818C21.5526 21.9987 25.2904 18.0048 29.8592 18.0048V20.9638C29.8592 25.8463 26.1208 29.8408 21.5526 29.8408ZM21.5526 41.6767C16.9843 41.6767 13.2467 37.6821 13.2467 32.7997V29.8408C17.7771 29.8408 21.4905 33.7681 21.5526 38.5952V41.6767Z" fill="#E5ECF5"/>
<path fill-rule="evenodd" clip-rule="evenodd" d="M13.246 16.591C13.246 21.4733 16.9844 25.4677 21.5526 25.4677V22.5088C21.5526 17.6266 17.8146 13.6318 13.246 13.6318V16.591ZM58.467 32.5367C58.467 37.9611 62.6196 42.3992 67.6948 42.3992L67.6957 39.1116C67.6957 33.6874 63.5428 29.2491 58.467 29.2491V32.5367Z" fill="#B6EFBB"/>
<path fill-rule="evenodd" clip-rule="evenodd" d="M21.5525 29.8406C26.1207 29.8406 29.8591 25.8462 29.8591 20.9639V18.0049C25.2905 18.0049 21.5525 21.9987 21.5525 26.8818V29.8406ZM13.2468 32.7998C13.2468 37.6821 16.9845 41.6768 21.5527 41.6768V38.5951C21.4909 33.768 17.7772 29.8406 13.2468 29.8406V32.7998Z" fill="#71E4BF"/>
<path fill-rule="evenodd" clip-rule="evenodd" d="M42.3167 35.8242C42.3167 48.1119 51.6425 58.0166 63.0814 58.0166C74.5202 58.0166 83.8461 48.1119 83.8461 35.8242C83.8461 23.5677 74.5494 13.6318 63.0814 13.6318C51.6133 13.6318 42.3167 23.5677 42.3167 35.8242ZM63.0814 52.0988C54.6697 52.0988 47.8539 44.8144 47.8539 35.8244C47.8539 26.8344 54.6697 19.55 63.0814 19.55C71.493 19.55 78.3088 26.8344 78.3088 35.8244C78.3088 44.8142 71.493 52.0988 63.0814 52.0988Z" fill="#E8AB4C"/>
<path fill-rule="evenodd" clip-rule="evenodd" d="M47.854 35.8242C47.854 44.8142 54.6698 52.0986 63.0815 52.0986C71.4931 52.0986 78.3089 44.8142 78.3089 35.8242C78.3089 26.8342 71.4931 19.5498 63.0815 19.5498C54.6698 19.5498 47.854 26.8344 47.854 35.8242ZM67.6949 42.3993C62.6196 42.3993 58.4671 37.9612 58.4671 32.5368V29.2492C63.5429 29.2492 67.6958 33.6872 67.6958 39.1117L67.6949 42.3993Z" fill="#B6E6FA"/>
<path fill-rule="evenodd" clip-rule="evenodd" d="M60.3127 66.8936H65.85V57.8208C64.0168 58.0818 62.146 58.0818 60.3127 57.8208V66.8936Z" fill="#E1763A"/>
<path fill-rule="evenodd" clip-rule="evenodd" d="M63.0814 99.8367C66.1269 99.8367 68.6187 97.1738 68.6187 93.9187V69.8525C68.6187 68.2249 67.3728 66.8936 65.85 66.8936H60.3128C58.7901 66.8936 57.5442 68.2249 57.5442 69.8525V93.9187C57.5442 97.1736 60.0358 99.8367 63.0814 99.8367Z" fill="#E8AB4C"/>
<path fill-rule="evenodd" clip-rule="evenodd" d="M2.17163 82.083L13.2461 93.9189V82.083H2.17163Z" fill="#B0C5E0"/>
<path fill-rule="evenodd" clip-rule="evenodd" d="M2.17163 1.7959H6.32458V82.083H2.17163V1.7959Z" fill="#B0C5E0"/>
<path fill-rule="evenodd" clip-rule="evenodd" d="M47.854 35.8243C47.854 45.7295 56.0323 53.2771 65.1578 51.9477C57.7293 50.8657 52.0069 44.0614 52.0069 35.8243C52.0069 27.5873 57.7293 20.783 65.1578 19.701C56.0323 18.3718 47.854 25.9192 47.854 35.8243Z" fill="#8BB3D8"/>
<path fill-rule="evenodd" clip-rule="evenodd" d="M63.0814 99.8367C63.8147 99.8367 64.5158 99.6818 65.1579 99.4021C63.1335 98.5195 61.6971 96.3901 61.6971 93.9187V69.8525C61.6971 68.2249 62.943 66.8936 64.4657 66.8936H60.3128C58.7901 66.8936 57.5442 68.2249 57.5442 69.8525V93.9187C57.5442 97.1736 60.0358 99.8367 63.0814 99.8367Z" fill="#E1763A"/>
<path d="M58.9285 9.19336H56.1598V6.23438H58.9285V9.19336ZM53.3912 9.19336H50.6226V6.23438H53.3912V9.19336Z" fill="white"/>
<path d="M85.2305 35.8242C85.2305 23.2685 76.0362 12.9665 64.4658 12.1999V0.316406H11.8619V3.27539H61.6971V12.1999C50.1267 12.9663 40.9324 23.2685 40.9324 35.8242C40.9324 47.3601 48.694 56.9934 58.9285 59.0769V65.6687C57.3174 66.2795 56.1599 67.9239 56.1599 69.8527V92.4395H14.6305V80.6035H3.55598V3.27539H9.09323V0.316406H0.787354V82.6957L12.6729 95.3984H56.2992C56.9423 98.7709 59.7388 101.316 63.0815 101.316C66.8981 101.316 70.003 97.998 70.003 93.9189V89.4805H67.2344V93.9189C67.2344 96.3664 65.3713 98.3574 63.0815 98.3574C60.7916 98.3574 58.9285 96.3662 58.9285 93.9189V69.8525C58.9285 69.0368 59.5494 68.373 60.3128 68.373H65.8501C66.6135 68.373 67.2344 69.0368 67.2344 69.8525V80.6035H70.003V69.8525C70.003 67.9239 68.8456 66.2793 67.2344 65.6685V59.0767C77.4689 56.9934 85.2305 47.3601 85.2305 35.8242ZM11.8619 90.3471L5.51358 83.5625H11.8619V90.3471ZM43.7011 35.8242C43.7011 24.4031 52.3951 15.1113 63.0815 15.1113C73.7678 15.1113 82.4618 24.4031 82.4618 35.8242C82.4618 47.2453 73.7678 56.5371 63.0815 56.5371C52.3951 56.5371 43.7011 47.2451 43.7011 35.8242ZM64.4658 65.4141H61.6971V59.4484C62.1551 59.4787 62.6163 59.4959 63.0815 59.4959C63.5466 59.4959 64.0078 59.4787 64.4658 59.4484V65.4141Z" fill="black"/>
<path d="M79.6932 35.8242C79.6932 26.0347 72.2412 18.0703 63.0815 18.0703C53.9217 18.0703 46.4697 26.0347 46.4697 35.8242C46.4697 45.6137 53.9217 53.5781 63.0815 53.5781C72.2412 53.5781 79.6932 45.6135 79.6932 35.8242ZM49.2383 35.8242C49.2383 27.6663 55.4484 21.0293 63.0815 21.0293C70.7145 21.0293 76.9246 27.6663 76.9246 35.8242C76.9246 43.9821 70.7145 50.6191 63.0815 50.6191C55.4484 50.6191 49.2383 43.9819 49.2383 35.8242Z" fill="black"/>
<path d="M67.2344 83.5625H70.0029V86.5215H67.2344V83.5625Z" fill="black"/>
<path d="M69.0789 43.8787L69.0802 39.1115C69.0802 32.8575 64.3192 27.7695 58.4671 27.7695H57.0828V32.5367C57.0828 38.7908 61.8433 43.8789 67.695 43.8789H69.0789V43.8787ZM66.311 40.7891C62.6437 40.0886 59.8514 36.6547 59.8514 32.5367V30.8594C63.5189 31.5601 66.3116 34.9939 66.3116 39.1115L66.311 40.7891Z" fill="black"/>
<path d="M14.6321 57.8857H40.9339V60.8447H14.6321V57.8857Z" fill="black"/>
<path d="M17.4007 71.2008V74.1597H14.6321V77.1187H40.9339V63.8037H38.1653V74.1597H34.0123V66.7626H31.2437V74.1597H27.0909V69.7216H24.3223V74.1597H20.1693V71.2008H17.4007Z" fill="black"/>
<path d="M14.6321 51.9678H40.9339V54.9268H14.6321V51.9678Z" fill="black"/>
<path d="M20.1682 26.8417V31.4759C18.4079 29.5549 15.9555 28.3612 13.2468 28.3612H11.8625V32.7997C11.8625 38.0079 15.4785 42.3306 20.1682 43.0508V46.0498H14.6319V49.0088H28.475V46.0498H22.9368V38.7177H22.9378C22.9378 38.6703 22.9374 38.6232 22.9368 38.576V31.2149C27.6269 30.4949 31.2435 26.1722 31.2435 20.964V16.5255H29.8592C26.9962 16.5255 24.4192 17.859 22.6435 19.9755C21.5835 15.4851 17.772 12.1523 13.2459 12.1523H11.8616V16.5908C11.8616 21.799 15.4781 26.1217 20.1682 26.8417ZM20.1682 40.0486C17.0129 39.3611 14.6311 36.3722 14.6311 32.7997V31.4688C17.7516 32.1481 20.1152 35.0779 20.1682 38.5969V40.0486ZM22.9368 26.8817C22.9368 23.3093 25.3188 20.3201 28.4748 19.633V20.964C28.4748 24.5365 26.0929 27.5256 22.9368 28.2127V26.8817ZM14.6302 15.2599C17.7863 15.9469 20.1682 18.9361 20.1682 22.5086V23.8395C17.0122 23.1524 14.6302 20.1633 14.6302 16.5908V15.2599Z" fill="black"/>
</svg>
