<svg width="85" height="102" viewBox="0 0 85 102" fill="none" xmlns="http://www.w3.org/2000/svg">
<path d="M51.2183 92.8997C51.2183 88.2587 48.0615 84.4829 44.1814 84.4829C40.3012 84.4829 37.1445 88.2587 37.1445 92.8997C37.1445 97.5407 40.3012 101.316 44.1814 101.316C48.0615 101.316 51.2183 97.5407 51.2183 92.8997ZM39.9592 92.8997C39.9592 90.1154 41.8536 87.8496 44.1814 87.8496C46.5092 87.8496 48.4035 90.1154 48.4035 92.8997C48.4035 95.6839 46.5092 97.9497 44.1814 97.9497C41.8536 97.9497 39.9592 95.6839 39.9592 92.8997Z" fill="#23374E"/>
<path d="M79.366 92.8997C79.366 88.2587 76.2092 84.4829 72.329 84.4829C68.4489 84.4829 65.2921 88.2587 65.2921 92.8997C65.2921 97.5407 68.4489 101.316 72.329 101.316C76.2092 101.316 79.366 97.5407 79.366 92.8997ZM68.1069 92.8997C68.1069 90.1154 70.0012 87.8496 72.329 87.8496C74.6569 87.8496 76.5512 90.1154 76.5512 92.8997C76.5512 95.6839 74.6569 97.9497 72.329 97.9497C70.0012 97.9497 68.1069 95.6839 68.1069 92.8997Z" fill="#23374E"/>
<path d="M83.5881 3.68307H77.9586H66.4068C53.3913 3.68307 42.1688 13.0087 37.1444 26.3626V1.99974C37.1444 1.07054 36.5153 0.316406 35.737 0.316406H30.1075C29.3292 0.316406 28.7001 1.07054 28.7001 1.99974V3.68307H21.6632H16.0337H7.58935C6.81107 3.68307 6.18197 4.4372 6.18197 5.3664V28.933V50.8163H1.95981C1.18153 50.8163 0.552429 51.5705 0.552429 52.4997V59.233C0.552429 60.1622 1.18153 60.9163 1.95981 60.9163H28.7001V86.1663C28.7001 87.0955 29.3292 87.8496 30.1075 87.8496H35.737C36.5153 87.8496 37.1444 87.0955 37.1444 86.1663V84.7085C39.0008 82.4175 41.5369 81.1163 44.1813 81.1163C47.6773 81.1163 50.9438 83.3753 52.7045 87.0096C52.955 87.5298 53.4194 87.8496 53.9219 87.8496H62.5885C63.0895 87.8496 63.5554 87.5298 63.8059 87.0096C65.5665 83.3753 68.8331 81.1163 72.329 81.1163C75.825 81.1163 79.0915 83.3753 80.8521 87.0096C81.1027 87.5298 81.5671 87.8496 82.0695 87.8496H83.5881C84.3664 87.8496 84.9955 87.0955 84.9955 86.1663V69.333V62.5996V5.3664C84.9955 4.4372 84.3664 3.68307 83.5881 3.68307ZM82.1807 7.04973V52.4997C82.1216 52.4054 82.0456 52.3229 81.9851 52.2303C81.6924 51.7842 81.3827 51.355 81.0534 50.9459C80.9436 50.8096 80.8339 50.6732 80.7199 50.5403C80.3568 50.1177 79.9725 49.7255 79.5742 49.3518C79.5011 49.2845 79.4405 49.202 79.366 49.1364V7.04973H82.1807ZM82.1807 67.6496H59.6626V62.5996C59.6626 62.1855 59.6837 61.7765 59.7146 61.3708C59.7329 61.1436 59.7611 60.9163 59.7892 60.6908C59.8075 60.5342 59.8258 60.3777 59.8498 60.2228C59.8962 59.9215 59.9511 59.6201 60.0144 59.3205C60.0271 59.2599 60.0397 59.201 60.0524 59.1421C60.1284 58.8037 60.2143 58.4671 60.3128 58.1321C60.3184 58.1136 60.324 58.0934 60.3297 58.0749C60.4451 57.6911 60.5731 57.3157 60.7153 56.9504C60.7322 56.9066 60.7505 56.8629 60.7688 56.8174C60.9011 56.4858 61.0432 56.1626 61.1952 55.8461C61.236 55.7603 61.2811 55.6778 61.3233 55.5936C61.4598 55.3243 61.6034 55.0617 61.7553 54.8041C61.8243 54.688 61.8975 54.5752 61.9693 54.4624C62.11 54.2419 62.2536 54.0231 62.4056 53.8127C62.4928 53.6915 62.5857 53.5736 62.6758 53.4558C62.8292 53.2588 62.9854 53.0636 63.1487 52.8767C63.2387 52.774 63.333 52.6747 63.4259 52.5754C63.6089 52.3801 63.7932 52.1882 63.9875 52.0081C64.0621 51.9391 64.1381 51.8735 64.2141 51.8061C64.4392 51.6058 64.6686 51.4122 64.9079 51.2321C64.9572 51.1951 65.0064 51.1597 65.0557 51.1244C65.3245 50.9291 65.5989 50.7423 65.8818 50.5722C67.4018 49.6599 69.1089 49.133 70.9216 49.133C73.248 49.133 75.4112 49.9814 77.207 51.4324C77.5448 51.7051 77.8629 52.0014 78.1697 52.3111C78.2992 52.4407 78.4202 52.5805 78.544 52.7185C78.7256 52.9188 78.9029 53.1225 79.0718 53.3363C79.1999 53.4979 79.3251 53.6612 79.4462 53.8295C79.6038 54.0483 79.753 54.2756 79.8979 54.5062C80.0021 54.6695 80.109 54.8294 80.2062 54.9994C80.4299 55.3883 80.6382 55.7889 80.8254 56.203C80.8775 56.3175 80.9183 56.4403 80.9676 56.5565C81.1069 56.8898 81.2406 57.2265 81.3574 57.5715C81.4123 57.7331 81.4587 57.8998 81.508 58.0648C81.6037 58.3829 81.6895 58.7044 81.7641 59.0293C81.8035 59.1993 81.8415 59.3693 81.8739 59.541C81.9415 59.8895 81.9949 60.2413 82.04 60.5982C82.0597 60.7514 82.0836 60.9012 82.0991 61.056C82.1498 61.5644 82.1807 62.0795 82.1807 62.5996V67.6496ZM37.7271 67.6496L45.0497 42.8373L47.1495 43.674C47.6252 45.8404 49.2606 47.4497 51.2183 47.4497V55.8663C46.5612 55.8663 42.774 60.3962 42.774 65.9663V67.6496H37.7271ZM53.6953 40.7163H56.8478C57.6247 40.7163 58.2552 41.4722 58.2552 42.3997C58.2552 43.3272 57.6247 44.083 56.8478 44.083H52.6256H51.2183C50.4414 44.083 49.8109 43.3272 49.8109 42.3997C49.8109 41.4722 50.4414 40.7163 51.2183 40.7163H53.6953ZM52.6256 27.2497C52.6256 23.5363 55.1505 20.5164 58.2552 20.5164C61.3599 20.5164 63.8847 23.5363 63.8847 27.2497C63.8847 30.9631 61.3599 33.983 58.2552 33.983C55.1505 33.983 52.6256 30.9631 52.6256 27.2497ZM63.8847 48.0372C63.8594 48.054 63.8397 48.0775 63.8144 48.0944C63.1965 48.5287 62.6026 49.0084 62.0509 49.5471C62.0453 49.5521 62.0396 49.5555 62.0354 49.5606C61.5161 50.0672 61.0376 50.6278 60.5844 51.217C60.4986 51.3281 60.4127 51.4375 60.3297 51.5519C59.8948 52.1478 59.4923 52.7757 59.1306 53.4406C59.0954 53.5046 59.0658 53.5703 59.0321 53.6359C58.6563 54.348 58.3171 55.0886 58.0328 55.8663H54.033V47.4497H56.8478C59.1756 47.4497 61.07 45.1839 61.07 42.3997C61.07 42.0748 61.039 41.7583 60.9897 41.4503C60.9743 41.3493 60.9461 41.255 60.925 41.1557C60.8814 40.952 60.8335 40.7517 60.7702 40.5581C60.735 40.4504 60.6928 40.3477 60.6506 40.2433C60.5816 40.0699 60.5056 39.9016 60.4212 39.7383C60.3691 39.639 60.3156 39.5431 60.2593 39.4471C60.1636 39.2906 60.0609 39.1424 59.9511 39.001C59.8892 38.9202 59.83 38.8377 59.7639 38.762C59.6316 38.6088 59.4881 38.4725 59.3389 38.3428C59.284 38.294 59.2333 38.2385 59.1756 38.193C58.9645 38.0247 58.7407 37.8783 58.5057 37.757C58.4621 37.7352 58.4156 37.7234 58.3706 37.7032C58.2045 37.6257 58.0384 37.5483 57.8625 37.4961C58.2186 37.4002 58.5845 37.3497 58.9589 37.3497C61.6751 37.3497 63.8847 39.9925 63.8847 43.2413V48.0372ZM45.5887 65.9663C45.5887 62.2529 48.1136 59.233 51.2183 59.233H52.6256H57.1321C56.9463 60.3204 56.8478 61.4466 56.8478 62.5996V67.6496H45.5887V65.9663ZM66.4068 7.04973H76.5512V47.182C74.8257 46.2764 72.9229 45.7663 70.9216 45.7663C69.4509 45.7663 68.0337 46.0407 66.6995 46.5424V43.2413C66.6995 39.9824 65.2808 37.1174 63.1473 35.4677C65.2935 33.6346 66.6995 30.6382 66.6995 27.2497C66.6995 21.6796 62.9122 17.1497 58.2552 17.1497C53.5981 17.1497 49.8109 21.6796 49.8109 27.2497C49.8109 31.0204 51.549 34.3079 54.1147 36.0434C53.7107 36.4323 53.3364 36.8649 53.0014 37.3497H51.2183C49.5407 37.3497 48.1009 38.5347 47.4211 40.2332L40.4053 37.4355L39.5145 40.6288L42.3771 41.7701L37.1444 59.504V42.0495C37.1444 22.7502 50.2711 7.04973 66.4068 7.04973ZM20.2558 7.04973V14.4261L19.4775 13.9615C19.2805 13.842 19.0638 13.7831 18.8484 13.7831C18.6331 13.7831 18.4164 13.842 18.2193 13.9598L17.441 14.4261V7.04973H20.2558ZM8.99673 7.04973H14.6263V17.1497C14.6263 17.7338 14.8796 18.2742 15.2948 18.5822C15.7086 18.8886 16.2265 18.9138 16.6642 18.6563L18.8484 17.3483L21.0341 18.6546C21.2325 18.7741 21.4479 18.833 21.6632 18.833C21.9207 18.833 22.1769 18.7489 22.4021 18.5822C22.8172 18.2742 23.0706 17.7338 23.0706 17.1497V7.04973H28.7001V27.2497H21.6632H16.0337H8.99673V7.04973ZM17.441 30.6164H20.2558V37.9927L19.4775 37.5281C19.2805 37.4086 19.0638 37.3497 18.8484 37.3497C18.6331 37.3497 18.4164 37.4086 18.2193 37.5264L17.441 37.9927V30.6164ZM8.99673 30.6164H14.6263V40.7163C14.6263 41.3005 14.8796 41.8408 15.2948 42.1489C15.7086 42.4552 16.2265 42.4822 16.6642 42.2229L18.8484 40.915L21.0341 42.2212C21.2325 42.3408 21.4479 42.3997 21.6632 42.3997C21.9207 42.3997 22.1769 42.3155 22.4021 42.1489C22.8172 41.8408 23.0706 41.3005 23.0706 40.7163V30.6164H28.7001V50.8163H8.99673V30.6164ZM3.3672 57.5497V54.183H7.58935H28.7001V57.5497H3.3672ZM72.329 77.7496C68.1083 77.7496 64.1493 80.3066 61.8088 84.4829H54.7001C52.3596 80.3066 48.4007 77.7496 44.1799 77.7496C40.5559 77.7496 37.0909 79.6434 34.6759 82.9427C34.4535 83.2507 34.3297 83.643 34.3297 84.052V84.4829H31.5149V59.233V52.4997V28.933V5.3664V3.68307H34.3297V42.0495V69.333C34.3297 70.2622 34.9588 71.0163 35.737 71.0163H44.1813H58.2552H82.1807V83.3972C79.7966 79.8672 76.1698 77.7496 72.329 77.7496Z" fill="#23374E"/>
</svg>
