<svg width="85" height="98" viewBox="0 0 85 98" fill="none" xmlns="http://www.w3.org/2000/svg">
<path d="M83.0357 33.6128H71.7766C70.9998 33.6128 70.3693 34.3652 70.3693 35.2961V36.9794H36.592C36.2191 36.9794 35.8602 37.1562 35.597 37.4727L33.7772 39.6492L31.9575 37.4727C31.6943 37.1562 31.3354 36.9794 30.9625 36.9794H14.0739V35.2961C14.0739 34.3652 13.4433 33.6128 12.6665 33.6128H1.40739C0.630509 33.6128 0 34.3652 0 35.2961V82.4293C0 83.3601 0.630509 84.1126 1.40739 84.1126H12.6665C13.4433 84.1126 14.0739 83.3601 14.0739 82.4293V80.7459H15.1491C15.4995 81.6785 16.0709 82.468 16.8112 83.0252C17.536 83.5706 18.3439 83.8315 19.1433 83.8315C19.4219 83.8315 19.695 83.7709 19.9666 83.7086C20.2396 84.9559 20.8814 86.0905 21.8623 86.8312C22.5871 87.3766 23.395 87.6375 24.1958 87.6375C24.473 87.6375 24.7461 87.5769 25.0177 87.5146C25.3006 88.8108 25.9634 89.9184 26.9148 90.6338C27.6242 91.1691 28.4292 91.4452 29.2483 91.4452C29.5241 91.4452 29.8 91.3963 30.0758 91.3324C30.3503 92.5747 30.9906 93.7025 31.9688 94.4398C32.6936 94.9852 33.5028 95.2461 34.3022 95.2461C35.7631 95.2461 37.193 94.3758 38.0261 92.7935L38.9635 91.0125L43.3362 96.2426C44.1919 97.2661 45.3178 97.7778 46.4423 97.7778C47.5668 97.7778 48.6927 97.2661 49.5484 96.2426C50.3422 95.2949 50.7827 94.0442 50.8207 92.7093C51.8931 92.6639 52.9543 92.169 53.7706 91.1927C54.5643 90.2449 55.0048 88.9942 55.0428 87.6594C56.1153 87.6139 57.1764 87.119 57.9927 86.1427C58.7865 85.195 59.227 83.9443 59.265 82.6094C60.3374 82.5639 61.3986 82.069 62.2149 81.0927C62.6976 80.5153 63.0368 79.8201 63.2507 79.0677L70.3693 80.4884V82.4293C70.3693 83.3601 70.9998 84.1126 71.7766 84.1126H83.0357C83.8126 84.1126 84.4431 83.3601 84.4431 82.4293V35.2961C84.4431 34.3652 83.8126 33.6128 83.0357 33.6128ZM11.2591 80.7459H2.81477V36.9794H11.2591V38.6628V79.0626V80.7459ZM18.3101 80.1753C17.954 79.9076 17.7049 79.4885 17.612 78.997C17.5712 78.7849 17.5768 78.5694 17.5965 78.359C17.6008 78.3034 17.6078 78.2479 17.6162 78.1906C17.6542 77.9752 17.7134 77.7648 17.8147 77.5729L22.0565 69.5148C22.1593 69.3195 22.2944 69.1663 22.4394 69.0333C22.4745 69.0014 22.5111 68.9694 22.5477 68.9408C22.6955 68.828 22.8559 68.7371 23.0248 68.6883C23.0473 68.6815 23.0727 68.6832 23.0952 68.6782C23.2458 68.6428 23.402 68.6411 23.5568 68.6613C23.6075 68.6681 23.6581 68.6748 23.7088 68.6866C23.889 68.7304 24.0677 68.7994 24.2324 68.9239C24.9684 69.4794 25.1908 70.6477 24.7278 71.528L20.4859 79.5861C20.0243 80.4648 19.049 80.7341 18.3101 80.1753ZM23.364 83.983C22.6279 83.4275 22.4056 82.2592 22.8686 81.3789L24.4927 78.2933L27.1105 73.3208C27.4102 72.7501 27.9239 72.4387 28.4489 72.4387C28.736 72.4387 29.0273 72.533 29.2877 72.7299C29.6438 72.9976 29.8915 73.4167 29.9858 73.9083C30.08 74.3998 30.0069 74.9065 29.7817 75.3324L25.5398 83.3904C25.0754 84.2708 24.1001 84.5351 23.364 83.983ZM28.4151 87.7856C28.059 87.518 27.8113 87.0988 27.717 86.609C27.6242 86.1174 27.6959 85.6107 27.9211 85.1849L32.163 77.1268C32.6274 76.2464 33.6041 75.9788 34.3402 76.5343C35.0763 77.0881 35.2986 78.2546 34.8342 79.1367L30.5909 87.1948C30.3672 87.6223 30.0167 87.9186 29.6058 88.0297C29.1976 88.1408 28.774 88.0566 28.4151 87.7856ZM35.6448 90.9991C35.1804 91.8811 34.2037 92.1488 33.469 91.5916C32.733 91.0378 32.5106 89.8696 32.9736 88.9892L37.2155 80.9328C37.2155 80.9328 37.2155 80.9328 37.2155 80.9311C37.4407 80.5052 37.7911 80.2073 38.2021 80.0962C38.3189 80.0642 38.4371 80.0507 38.5539 80.0507C38.8481 80.0507 39.138 80.15 39.3927 80.3419C39.7488 80.6096 39.9979 81.0287 40.0908 81.5203C40.1837 82.0101 40.1119 82.5168 39.8867 82.9427L35.6448 90.9991ZM47.5598 93.8641C46.9433 94.6014 45.9441 94.6014 45.3277 93.8641L40.5017 88.092L42.2272 84.8162L47.5598 91.1943C47.8581 91.5512 48.0228 92.0242 48.0228 92.5292C48.0228 93.0342 47.8581 93.5072 47.5598 93.8641ZM60.2262 78.7142C59.6098 79.4515 58.6106 79.4515 57.9941 78.7142L50.2535 69.4559L48.2635 71.8361L56.0041 81.0944C56.3024 81.4512 56.4671 81.9243 56.4671 82.4293C56.4671 82.9343 56.3024 83.4073 56.0041 83.7641C55.3876 84.5014 54.3884 84.5014 53.772 83.7641L46.0313 74.5058L44.0413 76.8861L51.7819 86.1444C52.0803 86.5012 52.245 86.9742 52.245 87.4792C52.245 87.9842 52.0803 88.4573 51.7819 88.8141C51.1655 89.5514 50.1662 89.5514 49.5498 88.8141L43.2166 81.2375L42.838 80.7847C42.8366 80.7796 42.838 80.7746 42.8366 80.7712C42.5762 79.4026 41.8866 78.2378 40.893 77.4904C39.9458 76.7767 38.8312 76.541 37.732 76.7901C37.4576 75.5495 36.8172 74.4217 35.8405 73.6844C34.8637 72.9488 33.7364 72.7468 32.6823 72.9875C32.398 71.6964 31.7365 70.5938 30.788 69.8801C29.8098 69.1445 28.6825 68.9425 27.627 69.1832C27.3525 67.9409 26.7122 66.8114 25.734 66.0741C23.6849 64.5305 20.9658 65.2711 19.6767 67.722L15.4348 75.7801C15.2955 76.0444 15.1815 76.3255 15.0858 76.6151C15.0309 76.7767 14.9957 76.9416 14.9549 77.1083C14.9324 77.2009 14.9 77.2884 14.8817 77.3826H14.0739V40.3461H30.3798L31.7872 42.0294L28.5601 45.8893C26.4588 48.4008 26.4588 52.4913 28.5601 55.0028C30.6599 57.5143 34.0798 57.5143 36.1797 55.0028L39.4068 51.143L60.2262 76.0444C60.5246 76.4013 60.6893 76.8743 60.6893 77.3793C60.6893 77.8843 60.5246 78.3573 60.2262 78.7142ZM64.0079 75.8071L62.2163 73.6642L40.4018 47.5726C39.8515 46.9144 38.9621 46.9144 38.4118 47.5726L34.1896 52.6226C33.2185 53.7858 31.5212 53.7858 30.5501 52.6226C30.4263 52.4745 30.3179 52.3129 30.2236 52.1445C30.1997 52.1008 30.1842 52.052 30.1631 52.0082C30.0983 51.8769 30.035 51.7473 29.9872 51.6092C29.9745 51.5705 29.9689 51.5284 29.9562 51.488C29.9112 51.3399 29.8689 51.1901 29.845 51.0369C29.8366 50.983 29.838 50.9258 29.8309 50.8719C29.7986 50.5891 29.7986 50.303 29.8309 50.0185C29.8366 49.9646 29.8352 49.9091 29.8436 49.8569C29.8689 49.702 29.9112 49.5522 29.9562 49.4041C29.9675 49.3654 29.9731 49.3233 29.9858 49.2846C30.0336 49.1448 30.0983 49.0119 30.1631 48.8806C30.1842 48.8368 30.1983 48.7897 30.2222 48.7493C30.3151 48.5809 30.4234 48.4193 30.5487 48.2712L34.7709 43.2212L37.1747 40.3461H70.3693V77.0746L64.0079 75.8071ZM81.6283 80.7459H73.184V79.0626V38.6628V36.9794H81.6283V80.7459Z" fill="#23374E"/>
<path d="M42.2215 33.613C48.4294 33.613 53.4805 27.5716 53.4805 20.1464C53.4805 12.7212 48.4294 6.67969 42.2215 6.67969C36.0136 6.67969 30.9625 12.7212 30.9625 20.1464C30.9625 27.5716 36.0136 33.613 42.2215 33.613ZM50.6657 20.1464C50.6657 25.1408 47.616 29.2886 43.6289 30.0949V28.2533C45.2628 27.5564 46.4436 25.7047 46.4436 23.513C46.4436 20.7288 44.5493 18.463 42.2215 18.463C41.446 18.463 40.8141 17.7089 40.8141 16.7797C40.8141 15.8505 41.446 15.0964 42.2215 15.0964C42.997 15.0964 43.6289 15.8505 43.6289 16.7797H46.4436C46.4436 14.588 45.2628 12.7363 43.6289 12.0394V10.1979C47.616 11.0042 50.6657 15.1519 50.6657 20.1464ZM40.8141 10.1979V12.0394C39.1802 12.7363 37.9994 14.588 37.9994 16.7797C37.9994 19.5639 39.8937 21.8297 42.2215 21.8297C42.997 21.8297 43.6289 22.5838 43.6289 23.513C43.6289 24.4422 42.997 25.1964 42.2215 25.1964C41.446 25.1964 40.8141 24.4422 40.8141 23.513H37.9994C37.9994 25.7047 39.1802 27.5564 40.8141 28.2533V30.0949C36.827 29.2902 33.7773 25.1425 33.7773 20.1464C33.7773 15.1502 36.827 11.0042 40.8141 10.1979Z" fill="#23374E"/>
<path d="M29.0948 4.32422C28.2236 4.95548 27.3778 5.65743 26.5798 6.40821L28.3193 9.05444C29.0287 8.38784 29.7816 7.76163 30.5557 7.19939L29.0948 4.32422Z" fill="#23374E"/>
<path d="M17.2939 24.8255L20.0637 25.4231C20.2256 24.3576 20.4423 23.292 20.7097 22.2602L18.0216 21.2637C17.719 22.4268 17.4755 23.6253 17.2939 24.8255Z" fill="#23374E"/>
<path d="M26.2843 11.2177L24.2928 8.8374C23.5751 9.69761 22.8925 10.6201 22.2648 11.5796L24.4814 13.6536C25.0402 12.8018 25.6468 11.982 26.2843 11.2177Z" fill="#23374E"/>
<path d="M19.1039 17.8386L21.6709 19.219C22.0424 18.2308 22.4675 17.2612 22.9347 16.337L20.5253 14.5947C20.0004 15.6351 19.5219 16.7276 19.1039 17.8386Z" fill="#23374E"/>
<path d="M43.7344 0L43.5684 3.35991C44.4761 3.42387 45.3853 3.55517 46.2705 3.74707L46.7729 0.432613C45.7765 0.218832 44.7534 0.0723828 43.7344 0Z" fill="#23374E"/>
<path d="M52.6123 2.60594C51.6806 2.10431 50.7165 1.66833 49.7496 1.30811L48.9122 4.52323C49.7722 4.84306 50.6293 5.2319 51.4596 5.67798L52.6123 2.60594Z" fill="#23374E"/>
<path d="M55.3244 4.31104L53.8678 7.19112C54.639 7.74997 55.392 8.3711 56.1055 9.04272L57.8422 6.39325C57.0386 5.63914 56.1913 4.9389 55.3244 4.31104Z" fill="#23374E"/>
<path d="M67.1434 24.787C66.9605 23.5868 66.7156 22.3917 66.413 21.2319L63.7263 22.2318C63.9937 23.262 64.2119 24.3258 64.3737 25.3896L67.1434 24.787Z" fill="#23374E"/>
<path d="M61.4943 16.3096C61.9629 17.2387 62.3894 18.2066 62.7581 19.188L65.3252 17.8077C64.91 16.7018 64.4301 15.611 63.9023 14.5674L61.4943 16.3096Z" fill="#23374E"/>
<path d="M34.6625 1.31836C33.6899 1.68195 32.7273 2.12129 31.8026 2.61955L32.9595 5.68652C33.7828 5.24213 34.6385 4.85329 35.5027 4.52841L34.6625 1.31836Z" fill="#23374E"/>
<path d="M40.6763 0C39.6574 0.0740676 38.6342 0.222203 37.6377 0.441039L38.1444 3.7522C39.0296 3.55861 39.9388 3.42731 40.8452 3.36166L40.6763 0Z" fill="#23374E"/>
<path d="M58.1433 11.2006C58.7809 11.9632 59.3874 12.7813 59.949 13.6365L62.1614 11.5558C61.5309 10.598 60.8483 9.67716 60.1333 8.82031L58.1433 11.2006Z" fill="#23374E"/>
</svg>
