<svg width="86" height="102" viewBox="0 0 86 102" fill="none" xmlns="http://www.w3.org/2000/svg">
<path fill-rule="evenodd" clip-rule="evenodd" d="M61.6661 14.1392H23.6309L23.0928 20.0571H62.204L61.6661 14.1392Z" fill="#F05475"/>
<path fill-rule="evenodd" clip-rule="evenodd" d="M16.1371 20.0571C14.6078 20.0571 13.355 21.3887 13.355 23.0161V25.9751H72.313V23.0161C72.313 21.3887 71.0602 20.0571 69.5308 20.0571H16.1371ZM42.6484 4.75488C42.6484 3.12764 41.3956 1.7959 39.866 1.7959H27.2661C25.7368 1.7959 24.6311 3.13592 24.4838 4.75488L23.6307 14.1392H61.6659L60.8128 4.75488C60.6655 3.13513 59.5598 1.7959 58.0305 1.7959H45.4307C43.9012 1.7959 42.6486 3.12764 42.6484 4.75488Z" fill="#E8AB4C"/>
<path fill-rule="evenodd" clip-rule="evenodd" d="M30.0487 38.0768V25.9751H24.0854V36.5973C24.0854 48.4445 21.0771 48.9969 30.2896 52.4291C32.0744 58.0658 39.1532 60.3115 42.8339 61.312C46.5147 60.3113 53.5934 58.0658 55.3782 52.4291C64.5907 48.9969 61.5824 48.4445 61.5824 36.5973V25.9751H55.6191V38.0768C55.6191 45.4191 47.0957 41.0409 42.8339 41.0437C38.5721 41.0409 30.0487 45.4191 30.0487 38.0768Z" fill="#E8AB4C"/>
<path fill-rule="evenodd" clip-rule="evenodd" d="M24.0856 36.5974V25.9751H18.9197V33.6384C18.9197 35.2659 20.1719 36.5974 21.702 36.5974H24.0856ZM61.5826 25.9751V36.5974H63.9663C65.4966 36.5974 66.7487 35.2659 66.7487 33.6384V25.9751H61.5826Z" fill="#FBF2E2"/>
<path fill-rule="evenodd" clip-rule="evenodd" d="M30.0488 25.9751V38.0767C30.0488 45.419 38.5723 41.0408 42.8341 41.0436C47.0959 41.041 55.6193 45.419 55.6193 38.0767V33.1633V25.9751H30.0488Z" fill="#FBF2E2"/>
<path fill-rule="evenodd" clip-rule="evenodd" d="M42.8339 61.3121C39.1531 60.3114 32.0745 58.0659 30.2897 52.4292L24.0344 54.6112V73.5103H61.6336V54.6114L55.3784 52.4292C53.5934 58.0659 46.5148 60.3116 42.8339 61.3121Z" fill="#E5ECF5"/>
<path fill-rule="evenodd" clip-rule="evenodd" d="M24.0343 73.5102V54.6113L18.4696 56.5524V76.4692C18.4696 74.8424 19.722 73.5102 21.252 73.5102H24.0343Z" fill="#F05475"/>
<path fill-rule="evenodd" clip-rule="evenodd" d="M18.4697 56.5522C10.806 59.2256 4.78589 61.9776 4.78589 70.5551V82.3867H18.4697V56.5522Z" fill="#E5ECF5"/>
<path fill-rule="evenodd" clip-rule="evenodd" d="M2.00366 82.3867H18.4695V88.3047H2.00366V82.3867Z" fill="#E5ECF5"/>
<path fill-rule="evenodd" clip-rule="evenodd" d="M18.4697 99.8369H26.8167V85.3459H58.8513V99.8369H67.1982V76.4692C67.1982 74.8418 65.9455 73.5103 64.4158 73.5103H21.2521C19.7223 73.5103 18.4697 74.8422 18.4697 76.4692V99.8369Z" fill="#F05475"/>
<path fill-rule="evenodd" clip-rule="evenodd" d="M26.8165 85.3457H58.8511V99.8369H26.8165V85.3457Z" fill="#E21743"/>
<path fill-rule="evenodd" clip-rule="evenodd" d="M61.6337 73.5102V54.6113L67.1983 56.5524V76.4692C67.1983 74.8424 65.9457 73.5102 64.416 73.5102H61.6337Z" fill="#F05475"/>
<path fill-rule="evenodd" clip-rule="evenodd" d="M67.1981 56.5522C74.8618 59.2256 80.8819 61.9776 80.8819 70.5551V82.3867H67.1981V56.5522Z" fill="#E5ECF5"/>
<path fill-rule="evenodd" clip-rule="evenodd" d="M67.1981 82.3867H83.664V88.3047H67.1981V82.3867Z" fill="#E5ECF5"/>
<path fill-rule="evenodd" clip-rule="evenodd" d="M67.1981 88.3047H80.8818V99.8369H67.1981V88.3047ZM18.4696 88.3047H4.78589V99.8369H18.4696V88.3047Z" fill="#FBF2E2"/>
<path fill-rule="evenodd" clip-rule="evenodd" d="M27.8042 14.1392H23.6309L23.0928 20.0571H27.2663L27.8042 14.1392Z" fill="#E21743"/>
<path fill-rule="evenodd" clip-rule="evenodd" d="M16.1371 20.0571C14.6078 20.0571 13.355 21.3887 13.355 23.0161V25.9751H17.5285V23.0161C17.5285 21.3889 18.7813 20.0571 20.3106 20.0571H16.1371ZM31.4396 1.7959H27.2661C25.7368 1.7959 24.6311 3.13592 24.4838 4.75488L23.6307 14.1392H27.8042L28.6573 4.75488C28.8046 3.13612 29.9103 1.7959 31.4396 1.7959Z" fill="#E1763A"/>
<path fill-rule="evenodd" clip-rule="evenodd" d="M24.0854 25.9753V36.5974C24.0854 48.4446 21.0771 48.9969 30.2896 52.4292C32.0744 58.0658 39.1532 60.3115 42.8339 61.312C44.5345 60.8496 46.9605 60.1213 49.2544 58.9156C43.8007 57.8796 36.0537 54.4939 34.4629 49.47C25.2504 46.0378 28.2587 45.4854 28.2587 33.6383V30.4136H30.0487V25.9751H24.0854V25.9753ZM61.5824 30.4138V25.9753H55.6191V30.4138H61.5824Z" fill="#E1763A"/>
<path fill-rule="evenodd" clip-rule="evenodd" d="M24.0856 30.4136V25.9751H18.9197V30.4136H24.0856ZM66.7487 30.4136V25.9751H61.5828V30.4136H66.7487Z" fill="#F7E0BA"/>
<path fill-rule="evenodd" clip-rule="evenodd" d="M30.0488 25.9751H55.6191V30.4136H30.0488V25.9751Z" fill="#F7E0BA"/>
<path fill-rule="evenodd" clip-rule="evenodd" d="M18.4697 56.5522C10.806 59.2256 4.78589 61.9776 4.78589 70.5551V82.3867H8.95941V70.5551C8.95941 63.7011 13.0148 58.8991 18.4697 56.5522Z" fill="#B0C5E0"/>
<path fill-rule="evenodd" clip-rule="evenodd" d="M2.00366 82.3867H6.17717V88.3047H2.00366V82.3867Z" fill="#B0C5E0"/>
<path fill-rule="evenodd" clip-rule="evenodd" d="M67.1981 88.3047H80.8818V92.7432H67.1981V88.3047ZM4.78589 88.3047V99.8369H8.9594V92.7432H18.4696V88.3047H4.78589Z" fill="#F7E0BA"/>
<path d="M56.6724 9.19336H53.8901V6.23438H56.6724V9.19336ZM51.1075 9.19336H48.3252V6.23438H51.1075V9.19336Z" fill="white"/>
<path d="M41.4427 98.3574H44.2251V101.316H41.4427V98.3574Z" fill="black"/>
<path d="M41.4427 65.7505H44.2251V68.7095H41.4427V65.7505Z" fill="black"/>
<path d="M22.6431 77.9487H25.4254V80.9077H22.6431V77.9487Z" fill="black"/>
<path d="M60.2424 77.9482H63.0248V80.9072H60.2424V77.9482Z" fill="black"/>
<path d="M85.0554 80.9073H82.2731V70.5552C82.2731 61.0289 75.6424 57.9408 67.6318 55.1466L59.4801 52.303C60.9474 51.5668 61.9364 50.8103 62.5771 49.8107C63.6596 48.1223 63.5067 46.168 63.2751 43.21C63.1658 41.8136 63.0349 40.1392 62.9898 38.0768H63.966C66.2672 38.0768 68.1395 36.0856 68.1395 33.6383V27.4546H73.704V23.016C73.704 20.5687 71.8319 18.5777 69.5307 18.5777H63.467L62.1976 4.61246C61.9714 2.12316 60.2189 0.316406 58.0307 0.316406H45.4308C44.3629 0.316406 43.3875 0.745262 42.6485 1.4493C41.9097 0.745262 40.934 0.316406 39.8661 0.316406H27.2662C25.078 0.316406 23.3255 2.12316 23.0994 4.61246L21.8297 18.5777H16.137C13.8358 18.5777 11.9637 20.5687 11.9637 23.016V27.4546H17.5282V33.6383C17.5282 36.0856 19.4005 38.0768 21.7017 38.0768H22.6779C22.6329 40.1394 22.5019 41.8138 22.3927 43.21C22.161 46.168 22.0081 48.1223 23.0907 49.8107C23.7313 50.8101 24.7205 51.5666 26.1878 52.3028L18.0359 55.1466C10.0253 57.9408 3.39465 61.0289 3.39465 70.5552V80.9073H0.612305V89.7843H3.39465V101.316H38.6604V98.3574H28.2077V86.8253H57.46V98.3574H47.0075V101.316H82.2731V89.7843H85.0554V80.9073ZM79.4907 70.5554V80.9075H68.5893V76.4692V58.6116C75.062 61.0002 79.4907 63.6174 79.4907 70.5554ZM19.8607 57.624L22.6431 56.6535V72.0305H21.2519C20.7642 72.0305 20.2961 72.1209 19.8607 72.285V57.624ZM25.4254 55.6828L29.5136 54.2567C30.5883 56.4817 32.4918 58.381 35.1962 59.9145C37.7712 61.3747 40.5918 62.2294 42.4893 62.7454L42.8338 62.8392L43.1782 62.7454C45.7955 62.0339 53.3827 59.9691 56.1534 54.2565L60.2421 55.6828V72.0305H25.4254V55.6828ZM63.0248 56.6535L65.8072 57.624V72.285C65.3718 72.1207 64.9037 72.0305 64.416 72.0305H63.0248V56.6535ZM65.3574 33.6383C65.3574 34.4542 64.7334 35.1178 63.9662 35.1178H62.9736V27.4546H65.3574V33.6383ZM24.894 15.6187H30.5866V12.6597H25.1629L25.8687 4.89711C25.9422 4.09108 26.4454 3.27519 27.2662 3.27519H39.8661C40.6333 3.27519 41.2573 3.9388 41.2573 4.75469L44.0396 4.75488C44.0398 3.93919 44.6638 3.27539 45.4308 3.27539H58.0307C58.8515 3.27539 59.3551 4.09128 59.4284 4.89731L60.134 12.6599H33.3692V15.6189H60.403L60.6719 18.5779H24.625L24.894 15.6187ZM14.746 23.016C14.746 22.2003 15.37 21.5367 16.137 21.5367H69.5309C70.2979 21.5367 70.9219 22.2003 70.9219 23.016V24.4956H14.746V23.016ZM31.4399 27.4546H54.228V33.1633V38.0766C54.228 39.1764 54 39.9329 53.5506 40.3252C52.4063 41.3236 49.4444 40.6977 47.0642 40.1946C45.53 39.8701 44.0812 39.564 42.8397 39.564C42.8362 39.5642 42.8332 39.5642 42.8301 39.564C41.5871 39.564 40.1377 39.8703 38.6039 40.1946C36.2235 40.6979 33.262 41.324 32.1175 40.3252C31.6679 39.9329 31.4401 39.1764 31.4401 38.0766V27.4546H31.4399ZM20.3105 33.6383V27.4546H22.6943V35.1178H21.7017C20.9347 35.1178 20.3105 34.4542 20.3105 33.6383ZM25.3896 48.1439C24.8853 47.3572 24.9609 46.067 25.1655 43.4554C25.3041 41.6846 25.4766 39.4809 25.4766 36.5971V27.4544H28.6576V38.0766C28.6576 40.1049 29.2278 41.6311 30.3522 42.6125C32.5133 44.499 36.0369 43.7539 39.1462 43.0968C40.5422 42.8017 41.8607 42.523 42.8315 42.523C42.8336 42.5228 42.8354 42.5228 42.8378 42.523C43.807 42.523 45.1257 42.8017 46.5215 43.0968C49.6307 43.7541 53.1544 44.499 55.3155 42.6125C56.44 41.6309 57.0102 40.1049 57.0102 38.0766V33.1633V27.4546H60.1911V36.5973C60.1911 39.4809 60.3636 41.6848 60.5022 43.4556C60.7068 46.067 60.7825 47.3572 60.2781 48.1441C59.6525 49.1197 57.7633 49.9729 54.9182 51.033L54.2766 51.2719L54.0598 51.9572C52.4762 56.9581 45.5749 59.0311 42.8338 59.7849C40.0928 59.0313 33.1915 56.9581 31.6078 51.9572L31.3909 51.2719L30.7493 51.033C27.9045 49.9727 26.0153 49.1195 25.3896 48.1439ZM6.17717 70.5554C6.17717 63.6176 10.6059 61.0004 17.0786 58.6116V76.4692V80.9075H6.17717V70.5554ZM3.39483 83.8663H17.0786V86.8253H3.39483V83.8663ZM6.17717 89.7843H17.0786V98.3574H6.17717V89.7843ZM25.4254 83.8663V98.3574H19.8607V76.469C19.8607 75.6531 20.4847 74.9895 21.2519 74.9895H64.4158C65.183 74.9895 65.807 75.6531 65.807 76.469V98.3574H60.2423V83.8663H25.4254ZM79.4907 98.3574H68.5893V89.7843H79.4907V98.3574ZM82.2731 86.8253H68.5893V83.8663H82.2731V86.8253Z" fill="black"/>
</svg>
