<svg width="26" height="24" viewBox="0 0 26 24" fill="none" xmlns="http://www.w3.org/2000/svg">
<path fill-rule="evenodd" clip-rule="evenodd" d="M13.0431 2C17.1217 2 20.4204 5.13 20.4204 9C20.4204 14.25 13.0431 22 13.0431 22C13.0431 22 5.66577 14.25 5.66577 9C5.66577 5.13 8.96449 2 13.0431 2ZM7.77358 9C7.77358 11.85 10.851 16.21 13.0431 18.88C15.2774 16.19 18.3126 11.88 18.3126 9C18.3126 6.24 15.9519 4 13.0431 4C10.1343 4 7.77358 6.24 7.77358 9ZM13.0431 11.5C11.588 11.5 10.4083 10.3807 10.4083 9C10.4083 7.61929 11.588 6.5 13.0431 6.5C14.4982 6.5 15.6779 7.61929 15.6779 9C15.6779 10.3807 14.4982 11.5 13.0431 11.5Z" fill="#FB9333"/>
</svg>
