<svg width="147" height="24" viewBox="0 0 147 24" fill="none" xmlns="http://www.w3.org/2000/svg">
<g clip-path="url(#clip0)">
<path d="M26.1141 7.05249C26.0526 5.77515 25.8388 4.90283 25.5262 4.13965C25.2087 3.33893 24.7108 2.61365 24.0674 2.01416C23.4358 1.40369 22.6713 0.931091 21.8274 0.6297C21.0229 0.333252 20.1037 0.130554 18.7575 0.0725098C17.4088 0.013916 16.9779 0 13.5433 0C10.1088 0 9.67784 0.013916 8.32913 0.0721435C6.98293 0.130554 6.06379 0.333435 5.25928 0.630066C4.41539 0.931274 3.65102 1.40369 3.01922 2.01416C2.37584 2.61346 1.87777 3.33875 1.56013 4.13947C1.2477 4.90283 1.03408 5.77515 0.972903 7.05231C0.911151 8.33221 0.896484 8.74091 0.896484 11.9998C0.896484 15.2589 0.911151 15.6678 0.972903 16.9475C1.03427 18.2247 1.24809 19.097 1.56071 19.8604C1.87815 20.6609 2.37603 21.3864 3.01941 21.9857C3.65102 22.5961 4.41559 23.0685 5.25947 23.3698C6.06379 23.6666 6.98313 23.8693 8.32933 23.9277C9.67822 23.9861 10.1089 23.9998 13.5435 23.9998C16.9781 23.9998 17.409 23.9861 18.7577 23.9277C20.1039 23.8693 21.0231 23.6666 21.8276 23.3698C23.5263 22.7465 24.8693 21.4722 25.5262 19.8604C25.839 19.097 26.0526 18.2247 26.1141 16.9475C26.1755 15.6676 26.1902 15.2589 26.1902 12C26.1902 8.74091 26.1755 8.33221 26.1141 7.05249ZM23.8376 16.8492C23.7815 18.0192 23.5754 18.6546 23.4023 19.0774C22.9768 20.124 22.1051 20.9511 21.002 21.3549C20.5565 21.5191 19.8868 21.7147 18.6537 21.7679C17.3204 21.8258 16.9204 21.8379 13.5433 21.8379C10.1661 21.8379 9.76622 21.8258 8.43276 21.7679C7.19984 21.7147 6.53021 21.5191 6.08444 21.3549C5.53523 21.1624 5.03832 20.8557 4.63037 20.4571C4.21026 20.07 3.88703 19.5987 3.68421 19.0774C3.51111 18.6546 3.30501 18.0192 3.24886 16.8492C3.18807 15.5839 3.17514 15.2043 3.17514 12.0002C3.17514 8.79584 3.18807 8.41644 3.24886 7.151C3.30521 5.98096 3.51111 5.34558 3.68421 4.92279C3.88703 4.40149 4.21045 3.92999 4.63037 3.54291C5.03832 3.14429 5.53523 2.83759 6.08463 2.64532C6.53021 2.4809 7.19984 2.28552 8.43295 2.23206C9.76641 2.17438 10.1665 2.16211 13.5433 2.16211H13.5431C16.92 2.16211 17.3201 2.17438 18.6537 2.23224C19.8868 2.28552 20.5563 2.48108 21.002 2.64532C21.5512 2.83777 22.0482 3.14447 22.4561 3.54291C22.8762 3.92999 23.1994 4.40149 23.4021 4.92279C23.5754 5.34558 23.7815 5.98096 23.8376 7.151C23.8984 8.41626 23.9113 8.79584 23.9113 12C23.9113 15.2043 23.8986 15.5837 23.8376 16.8492Z" fill="#FB9333"/>
<path d="M13.5432 5.83789C9.95651 5.83789 7.04895 8.59692 7.04895 12.0001C7.04895 15.4033 9.95651 18.1622 13.5432 18.1622C17.13 18.1622 20.0376 15.4033 20.0376 12.0001C20.0376 8.59692 17.13 5.83789 13.5432 5.83789ZM13.5432 16.0001C11.2151 15.9999 9.32761 14.2091 9.3278 11.9999C9.3278 9.79095 11.2151 8 13.5434 8C15.8716 8.00018 17.7589 9.79095 17.7589 11.9999C17.7589 14.2091 15.8714 16.0001 13.5432 16.0001Z" fill="#FB9333"/>
<path d="M21.8117 5.59442C21.8117 6.38965 21.1323 7.03436 20.2942 7.03436C19.4559 7.03436 18.7764 6.38965 18.7764 5.59442C18.7764 4.79901 19.4559 4.1543 20.2942 4.1543C21.1323 4.1543 21.8117 4.79901 21.8117 5.59442Z" fill="#FB9333"/>
</g>
<path d="M127.551 23.9998C137.892 23.9998 143.547 15.5366 143.547 8.19785C143.547 7.95746 143.542 7.71809 143.531 7.47997C144.628 6.69599 145.583 5.71768 146.335 4.60409C145.328 5.04647 144.244 5.34407 143.107 5.47852C144.267 4.79079 145.159 3.70322 145.579 2.40665C144.493 3.04275 143.29 3.50496 142.009 3.75465C140.983 2.67513 139.522 2 137.905 2C134.801 2 132.283 4.4872 132.283 7.55308C132.283 7.98905 132.332 8.41285 132.429 8.8195C127.756 8.58715 123.613 6.37732 120.841 3.01673C120.358 3.83746 120.079 4.791 120.079 5.80834C120.079 7.73503 121.072 9.43618 122.581 10.4312C121.659 10.4031 120.792 10.153 120.035 9.73668C120.034 9.76002 120.034 9.78273 120.034 9.80752C120.034 12.4973 121.972 14.7431 124.545 15.252C124.072 15.379 123.575 15.4473 123.062 15.4473C122.701 15.4473 122.348 15.4122 122.005 15.3472C122.721 17.5539 124.797 19.1596 127.257 19.2047C125.333 20.6945 122.909 21.582 120.275 21.582C119.822 21.582 119.374 21.5564 118.934 21.5052C121.422 23.0805 124.376 24 127.551 24" fill="#FB9333"/>
<g clip-path="url(#clip1)">
<path d="M82.9208 0H62.2032C60.9396 0 59.9152 0.972 59.9152 2.17099V21.8289C59.9152 23.028 60.9396 24 62.2032 24H82.9208C84.1845 24 85.2089 23.028 85.2089 21.8289V2.17099C85.2089 0.972 84.1845 0 82.9208 0ZM67.7421 20.7232C67.7421 21.0721 67.444 21.355 67.0763 21.355H64.2419C63.8742 21.355 63.5761 21.0721 63.5761 20.7232V9.4494C63.5761 9.10046 63.8742 8.81761 64.2419 8.81761H67.0763C67.444 8.81761 67.7421 9.10046 67.7421 9.4494V20.7232ZM65.6591 7.75489C64.172 7.75489 62.9664 6.61099 62.9664 5.19996C62.9664 3.78892 64.172 2.64503 65.6591 2.64503C67.1462 2.64503 68.3517 3.78892 68.3517 5.19996C68.3517 6.61099 67.1462 7.75489 65.6591 7.75489ZM82.5543 20.7741C82.5543 21.0949 82.2802 21.355 81.9421 21.355H78.9007C78.5626 21.355 78.2885 21.0949 78.2885 20.7741V15.486C78.2885 14.6972 78.5323 12.0292 76.1158 12.0292C74.2413 12.0292 73.8611 13.8553 73.7848 14.6749V20.7741C73.7848 21.0949 73.5107 21.355 73.1726 21.355H70.231C69.8929 21.355 69.6187 21.0949 69.6187 20.7741V9.39851C69.6187 9.07772 69.8929 8.81761 70.231 8.81761H73.1726C73.5107 8.81761 73.7848 9.07772 73.7848 9.39851V10.3821C74.4798 9.39236 75.5128 8.62844 77.7121 8.62844C82.5822 8.62844 82.5543 12.9457 82.5543 15.3178V20.7741Z" fill="#FB9333"/>
</g>
<defs>
<clipPath id="clip0">
<rect width="25.2937" height="24" fill="white" transform="translate(0.896484)"/>
</clipPath>
<clipPath id="clip1">
<rect width="25.2937" height="24" fill="white" transform="translate(59.9152)"/>
</clipPath>
</defs>
</svg>
